<?xml version="1.0" encoding="UTF-8" standalone="no"?>
<svg
   xmlns:dc="http://purl.org/dc/elements/1.1/"
   xmlns:cc="http://creativecommons.org/ns#"
   xmlns:rdf="http://www.w3.org/1999/02/22-rdf-syntax-ns#"
   xmlns:svg="http://www.w3.org/2000/svg"
   xmlns="http://www.w3.org/2000/svg"
   xmlns:sodipodi="http://sodipodi.sourceforge.net/DTD/sodipodi-0.dtd"
   xmlns:inkscape="http://www.inkscape.org/namespaces/inkscape"
   width="1024"
   height="500"
   version="1.1"
   id="svg9"
   sodipodi:docname="featureGraphic-fr.svg"
   inkscape:version="0.92.4 (5da689c313, 2019-01-14)"
   inkscape:export-filename="C:\dev\LeMondeRssReader\images\featureGraphic-fr.png"
   inkscape:export-xdpi="96"
   inkscape:export-ydpi="96">
  <metadata
     id="metadata15">
    <rdf:RDF>
      <cc:Work
         rdf:about="">
        <dc:format>image/svg+xml</dc:format>
        <dc:type
           rdf:resource="http://purl.org/dc/dcmitype/StillImage" />
        <dc:title />
      </cc:Work>
    </rdf:RDF>
  </metadata>
  <defs
     id="defs13" />
  <sodipodi:namedview
     pagecolor="#ffffff"
     bordercolor="#666666"
     borderopacity="1"
     objecttolerance="10"
     gridtolerance="10"
     guidetolerance="10"
     inkscape:pageopacity="0"
     inkscape:pageshadow="2"
     inkscape:window-width="3730"
     inkscape:window-height="2120"
     id="namedview11"
     showgrid="false"
     inkscape:zoom="1.9242902"
     inkscape:cx="643.18743"
     inkscape:cy="140.43443"
     inkscape:window-x="98"
     inkscape:window-y="-12"
     inkscape:window-maximized="1"
     inkscape:current-layer="svg9" />
  <rect
     style="fill:#ffffff;fill-opacity:0.70588235;stroke-width:0.84830624"
     id="rect12"
     width="1024"
     height="250"
     x="0"
     y="175" />
  <g
     id="g6"
     style="fill:none;fill-rule:evenodd"
     transform="translate(353,213.5005)">
    <path
       d="M 42,14.105 C 41.737,12.86 39.614,10 37.235,10 36.702,10 36.351,10.09 36,10.183 c 2.293,0.893 4.057,3.205 4.59,4.817 l 1.321,-0.803 v -0.092 z m 15,54.191 -8.571,-5.803 c -1.031,-0.698 -2.23,-2.017 -2.23,-4.478 V 37 L 45.341,37.53 45,37.706 v 20.921 c 0,1.76 0.94,3.605 2.223,4.484 L 55.886,69 Z M 19.976,47.216 c 0.168,-3.565 -0.586,-7.914 -1.346,-12.09 -0.76,-4.26 -1.439,-8.61 -1.353,-12.431 0.086,-2.346 0.508,-4.607 1.435,-6.695 -1.602,2.52 -2.612,5.388 -2.699,8.433 -0.252,7.392 3.206,17.04 2.866,24.524 A 115.83,115.83 0 0 1 18.63,52 l 0.166,-0.176 c 0.677,-0.958 1.098,-2.433 1.18,-4.608 M 32,68.17 C 30.714,65.58 27.632,64 24.03,64 c -0.346,0.08 -0.689,0.08 -1.03,0.08 3.516,0.587 6.514,2.502 7.631,4.92 L 32,68.169 Z M 63,37.25 60,34 60.091,36.165 61.674,38 Z M 145.192,19 138,14.723 139.08,14 146,18.093 c -0.27,0.271 -0.54,0.542 -0.808,0.907 m 1.71,50 -2.952,-2.082 C 142.01,65.533 141,63.193 141,60.595 V 31.661 c 0,-3.985 0.845,-6.758 2.191,-8.661 -0.758,1.903 -1.096,4.243 -1.096,6.93 l 0.083,29.623 c 0,3.206 0.93,5.286 3.123,6.845 L 148,68.308 146.903,69 Z M 123,68.736 c 0,0 -0.278,0.175 -0.462,0.264 h -0.74 V 20.634 c 0,-2.339 -0.185,-2.339 -1.666,-3.382 L 118,15.692 119.393,15 c 1.11,0.864 2.778,2.08 2.778,2.168 0.648,0.605 0.829,0.95 0.829,2.338 V 68.821 Z M 87.647,9 c -0.738,1.93 -0.646,3.774 0.278,5.285 0.836,1.34 2.313,2.264 4.075,2.685 C 86.539,17.387 84.137,13.447 87.647,9 m 12.855,42 c 0.355,-1.379 0.5,-2.93 0.5,-4.565 V 21.38 c 0,-3.012 -0.145,-3.353 -1.002,-4.3 h 0.145 c 1.212,-0.26 1.855,0 1.855,2.579 V 44.8 c 0,2.928 -0.426,4.822 -1.498,6.201 m 2.148,18 C 101.935,66.635 99.774,64.634 96,64.087 96.543,64 97.08,64 97.622,64 c 4.668,0.086 6.018,2.996 6.289,3.907 L 104,68.177 102.65,69 Z M 231,68.386 228.425,66.813 c -2.323,-1.404 -3.527,-3.586 -3.527,-6.911 V 36.199 c 0,-1.398 -0.083,-1.31 -0.603,-1.749 0,0 -1.804,-1.488 -3.008,-2.45 l -1.287,0.705 2.49,1.92 c 1.378,1.047 1.207,1.135 1.207,3.236 v 23.001 c 0,3.149 1.288,5.335 3.092,6.39 L 229.883,69 Z M 207,68.82 V 33.306 L 205.656,32 204,32.787 l 1.55,1.482 V 69 h 0.835 c 0.204,-0.09 0.514,-0.18 0.514,-0.18 z m -28,-0.435 -9.998,-6.087 c -2.002,-1.233 -2.78,-2.73 -2.78,-5.376 V 37 l -0.87,0.441 -0.352,0.175 v 20.276 c 0,2.381 1.042,4.14 2.871,5.203 L 177.866,69 Z M 184,57 V 37.245 c 0,-1.04 -0.33,-1.39 -1.084,-1.82 L 179,33 v 1.3 l 2.25,1.297 c 1.666,0.952 1.666,1.127 1.666,2.95 l -0.08,17.76 z m 79,-35.678 v -0.255 c 0,-2.384 -1.378,-4.85 -3.492,-6.13 C 258.698,14.425 257.972,14 257.972,14 l -0.972,0.683 0.564,0.336 c 2.756,1.623 4.305,3.664 4.305,6.981 z m 32,46.974 -8.594,-5.803 c -1.018,-0.698 -2.212,-2.017 -2.212,-4.478 V 37 L 283.342,37.53 283,37.706 V 58.36 c 0,2.288 0.855,3.872 2.298,4.84 l 8.508,5.8 z m -37,0.997 -9.18,-6.007 c -2.202,-1.408 -2.63,-2.736 -2.63,-5.302 V 39 l -0.681,0.356 -0.509,0.262 v 18.81 c 0,3.008 0.936,4.333 2.379,5.302 L 256.892,70 Z M 300,37.249 297,34 297.089,36.165 298.674,38 Z M 265,58 V 30 l -2,0.798 v 26.404 z"
       id="path2"
       inkscape:connector-curvature="0"
       style="fill:#8f98a9" />
    <path
       d="M 44.192,60.691 43.15,58.6 40.454,60.338 C 38.453,57.897 35.227,55.025 27.564,55.025 19.462,54.939 9.529,61.38 5,66.955 L 5.785,68 c 6.181,-4.095 12.544,-5.918 18.119,-5.918 4.53,0 8.274,2.176 9.84,5.396 z M 52.56,12.964 C 50.99,10.526 46.81,6 38.534,6 28.607,5.915 19.9,13.663 19.55,23.069 c -0.264,7.489 3.309,17.154 2.958,24.643 -0.171,2.527 -0.698,4.355 -1.739,5.745 l 1.041,1.223 6.1,-4.44 c 2.964,-2.185 4.617,-4.881 4.529,-9.58 -0.087,-5.836 -2.789,-14.805 -2.789,-21.682 0,-5.924 2.267,-10.365 7.406,-10.365 3.485,0 6.272,3.57 6.705,5.573 0.178,0.955 0,1.392 -0.87,2.001 l -2.437,1.66 v 2.696 l 12.107,-7.58 z M 75,36.13 63.328,23.242 45.12,33.863 v 2.438 l 3.747,-2.086 v 24.122 c 0,1.39 0.524,2.262 1.393,2.874 l 9.67,6.267 13.678,-7.927 -1.133,-2.438 -7.144,3.832 -6.444,-4.443 C 58.102,55.984 58.015,55.46 58.015,54.327 V 46.49 Z m -9.147,1.916 -7.838,4.875 V 30.206 l 0.697,-0.433 z m 39.567,29.69 C 104.544,65.282 102.009,62.748 97.456,62.574 93.164,62.486 87.038,64.151 81.966,68 L 81,66.773 c 3.678,-4.025 12.255,-10.495 21.266,-10.586 4.73,0 8.054,1.577 10.417,4.113 l 3.941,-2.188 1.138,2.277 z m 53.997,-53.625 c -3.419,2.01 -4.557,4.726 -4.557,8.925 v 33.499 c 0,2.105 0.266,3.062 1.402,3.678 l 1.139,0.615 3.15,-1.844 1.052,2.106 -10.942,6.562 -3.76,-2.541 c -1.669,-1.136 -2.371,-2.537 -2.371,-5.25 V 29.945 c 0,-5.596 1.756,-8.575 4.206,-10.408 l 1.401,-1.05 -10.327,-6.039 -4.639,2.797 v 43.566 c 0,3.674 -0.525,4.2 -3.768,5.86 0,0 -2.531,1.227 -6.026,3.064 h -0.703 V 19.45 c 0,-2.36 -0.266,-2.889 -1.579,-3.937 l -3.672,-2.973 -4.465,2.534 v 25.022 c 0,4.37 -0.7,7.52 -4.2,9.705 l -8.75,5.512 -0.88,-1.485 c 2.716,-2.103 3.327,-5.08 3.327,-8.577 V 19.71 c 0,-3.762 -0.52,-5.248 -4.463,-4.548 -1.486,0.26 -3.762,0.611 -5.162,0.786 -5.778,0.789 -8.23,-3.324 -4.29,-8.484 0,0 0.964,-1.313 3.413,-4.465 l 1.93,1.316 -1.405,2.011 c -1.836,2.629 -0.349,4.028 2.63,2.974 1.398,-0.526 4.11,-1.572 6.035,-2.364 8.311,-3.233 11.377,2.103 11.815,5.252 l 10.329,-6.21 8.92,6.82 11.025,-6.82 8.492,4.813 c 2.886,1.657 4.287,0.958 6.301,-0.093 l 1.664,-0.873 1.311,2.189 z m 39.462,42.235 -0.784,-1.905 -3.043,1.556 v -23.47 c 0,-1.207 -0.432,-2.163 -1.65,-2.86 L 182.18,23 164,33.565 v 2.514 l 3.744,-2.165 v 22.951 c 0,2.076 0.516,2.859 1.827,3.637 L 180.615,67 Z m 43.121,4.937 -0.869,-1.993 -3.221,1.823 -1.125,-0.696 c -1.218,-0.693 -1.481,-1.563 -1.481,-3.64 V 31.922 c 0,-1.994 -0.434,-2.856 -1.655,-3.724 l -6.698,-5.025 -10.35,5.893 -5.477,-5.893 -10.96,6.672 1.48,1.728 3.738,-2.246 2.696,3.029 V 66.83 h 0.696 c 4.35,-1.913 5.741,-2.516 5.741,-2.516 2.087,-0.868 2.698,-1.56 2.698,-3.982 v -28.76 l 3.569,-2.076 4.174,3.293 c 1.127,0.95 1.3,1.73 1.3,3.2 l 0.088,23.562 c 0,2.595 0.784,4.069 2.52,5.109 l 3.657,2.17 z m -56.082,-1.297 -0.519,0.087 -7.136,-4.16 c -1.213,-0.693 -1.48,-1.472 -1.48,-3.034 l 0.092,-22.777 0.518,-0.175 6.874,3.987 c 1.388,0.78 1.651,1.473 1.651,2.943 z m 80.207,0.922 -0.524,0.088 -6.199,-4.034 c -1.218,-0.785 -1.655,-1.4 -1.655,-2.971 V 31.66 l 7.766,-4.735 0.612,0.352 v 33.63 z m 12.918,-3.591 -0.783,-2.015 -3.145,1.66 V 19.837 c 0,-5.429 -2.442,-8.929 -6.457,-11.383 L 264.731,6 l -12.312,7.179 2.444,1.141 4.02,-2.188 2.613,1.487 c 2.795,1.577 4.629,4.733 4.629,7.97 v 1.398 L 245,35.246 v 2.367 l 3.578,-1.927 V 57.93 c 0,1.922 0.523,2.714 1.745,3.501 L 260.798,68 Z M 313,36.475 301.213,23.515 282.97,34.195 v 2.452 l 3.753,-2.098 v 24.258 c 0,1.398 0.524,2.275 1.396,2.89 l 9.692,6.303 13.702,-7.972 -1.043,-2.451 -7.16,3.854 -6.461,-4.47 c -0.875,-0.61 -0.96,-1.047 -0.96,-2.185 v -7.882 z m -9.253,1.927 -7.857,4.903 V 30.518 l 0.787,-0.436 z"
       id="path4"
       inkscape:connector-curvature="0"
       style="fill:#1a171b" />
  </g>
  <style
     id="xstyle-8"
     class="xstyle"
     type="text/css">:root{--base-color:#6298ce;--tab-color:#e08b26;--visited-color:#295887;--bg-custom:url();--bg-selected:none;--bg-attachment:scroll;--black:#000;--gray-1:#111;--gray-2:#222;--gray-3:#333;--gray-4:#444;--gray-5:#555;--gray-7:#777;--gray-a:#aaa;--gray-c:#ccc;--gray-d:#ddd;--gray-e:#eee;--white:#fff;--gray-18:#181818;--gray-28:#282828;--gray-2f:#2f4f4f;--gray-69:#696969;--gray-9a:#9a9a9a;--gray-b9:#b9b9b9;--gray-bc:#bcbcbc;--blue:#00f;--blue-1:#36c;--blue-2:#182030;--blue-3:#212c43;--blue-4:#3c5487;--red:#f00;--red-0:#400;--red-1:#c22;--red-2:#d33;--red-3:#722;--red-4:#ff4242;--green:#0f0;--green-1:#390;--green-2:#165316;--green-3:#061;--green-4:#002800;--brown-1:#321;--brown-2:#542;--brown-3:#261d08;--brown-4:#4b380d;--yellow-1:#b28200;--yellow-2:#ffdd7f;--orange-1:#e53e00;--orange-2:#e08b26;--purple-d:#241738;--purple-0:#312641;--purple-1:#382b4a;--purple-2:#768;--pink-0:#3e243c;--pink-1:#6b3e68;--pink-2:#965691;--pink-3:#ffbefa;--cyan-1:#194d41;--ores-1:#222800;--ores-2:#222000;--ores-3:#221800;--black_17:rgba(0, 0, 0, .175);--black_2:rgba(0, 0, 0, .2);--black_25:rgba(0, 0, 0, .25);--black_5:rgba(0, 0, 0, .5);--black_8:rgba(0, 0, 0, .8);--gray-2_75:rgba(34, 34, 34, .75);--gray-3_5:rgba(51, 51, 51, .5);--gray-5_25:rgba(85, 85, 85, .25);--gray-6_5:rgba(100, 100, 100, .5);--white_1:rgba(255, 255, 255, .1);--white_25:rgba(255, 255, 255, .25);--diff-del:rgba(213, 154, 0, .6);--diff-add:rgba(0, 112, 213, .6);--revs-old:rgba(255, 204, 51, .5);--revs-new:rgba(30, 109, 184, .5);--assess-1:#06c;--assess-2:#29c;--assess-3:#070;--assess-4:#6b0;--assess-5:#993;--assess-6:#b60;--assess-7:#921;--assess-8:#85f;--assess-9:#070;--assess-10:#0b6;--assess-11:#a4c;--assess-12:#568;--green-a0:#2f4500;--green-a1:#27560f;--green-a2:#016101;--green-a3:#305229;--green-a4:#50612b;--green-a5:#676702;--bluei-a0:#014523;--bluei-a1:#004e4e;--bluei-a2:#05493b;--bluei-a3:#1b3a2a;--cm-1:#27282e;--cm-2:#f9ee98;--cm-3:#fc0;--cm-4:#ca7841;--cm-5:#8da6ce;--cm-6:#607392;--cm-7:#cda869;--cm-8:#8f9d6a;--cm-9:#bd6b18;--cm-10:#f7f7f7;--cm-11:#997643;--cm-12:#d6bb6d;--cm-13:#ff6400;--cm-14:#aeaeae;--cm-15:#ad9361}</style>
  <text
     xml:space="preserve"
     style="font-style:normal;font-weight:normal;font-size:40px;line-height:1.25;font-family:sans-serif;letter-spacing:0px;word-spacing:0px;fill:#000000;fill-opacity:1;stroke:none"
     x="204.29492"
     y="390.34918"
     id="text3722"><tspan
       sodipodi:role="line"
       id="tspan3720"
       x="204.29492"
       y="390.34918"
       style="font-style:normal;font-variant:normal;font-weight:normal;font-stretch:normal;font-family:Roboto;-inkscape-font-specification:Roboto">Lecteur RSS natif, rapide, sans pub</tspan></text>
</svg>
