<?xml version="1.0" encoding="UTF-8" standalone="no"?>
<svg
   height="18"
   width="18"
   version="1.1"
   id="svg8"
   sodipodi:docname="icon-premium.svg"
   inkscape:export-filename="..\src\assets\premium.png"
   inkscape:export-xdpi="170.66667"
   inkscape:export-ydpi="170.66667"
   inkscape:version="1.2 (dc2aedaf03, 2022-05-15)"
   xmlns:inkscape="http://www.inkscape.org/namespaces/inkscape"
   xmlns:sodipodi="http://sodipodi.sourceforge.net/DTD/sodipodi-0.dtd"
   xmlns="http://www.w3.org/2000/svg"
   xmlns:svg="http://www.w3.org/2000/svg">
  <defs
     id="defs12" />
  <sodipodi:namedview
     id="namedview10"
     pagecolor="#ffffff"
     bordercolor="#666666"
     borderopacity="1.0"
     inkscape:showpageshadow="2"
     inkscape:pageopacity="0.0"
     inkscape:pagecheckerboard="0"
     inkscape:deskcolor="#d1d1d1"
     showgrid="false"
     inkscape:zoom="91.888889"
     inkscape:cx="8.8966143"
     inkscape:cy="9.0054414"
     inkscape:window-width="3668"
     inkscape:window-height="2120"
     inkscape:window-x="160"
     inkscape:window-y="-12"
     inkscape:window-maximized="1"
     inkscape:current-layer="svg8" />
  <path
     d="m 14.276,5.96 c -0.5,0.309 -0.667,0.727 -0.667,1.372 v 5.154 c 0,0.324 0.039,0.471 0.205,0.566 l 0.167,0.095 0.46,-0.284 0.155,0.324 -1.602,1.01 -0.55,-0.391 C 12.2,13.631 12.097,13.416 12.097,12.998 V 8.395 c 0,-0.86 0.257,-1.319 0.616,-1.6 l 0.205,-0.162 -1.512,-0.93 -0.678,0.431 v 6.702 c 0,0.566 -0.077,0.647 -0.552,0.902 0,0 -0.37,0.189 -0.882,0.471 H 9.191 V 6.781 C 9.191,6.418 9.152,6.336 8.961,6.175 L 8.423,5.718 7.769,6.108 v 3.849 c 0,0.673 -0.102,1.157 -0.614,1.493 L 5.875,12.298 5.745,12.07 C 6.143,11.746 6.233,11.288 6.233,10.75 V 6.82 C 6.233,6.242 6.156,6.013 5.579,6.121 5.362,6.161 5.029,6.215 4.824,6.242 3.978,6.363 3.619,5.731 4.196,4.937 c 0,0 0.141,-0.202 0.5,-0.687 L 4.978,4.452 4.773,4.762 C 4.503,5.166 4.721,5.382 5.157,5.219 5.362,5.139 5.759,4.978 6.04,4.856 7.257,4.358 7.705,5.179 7.77,5.664 l 1.511,-0.956 1.305,1.05 1.614,-1.05 1.243,0.74 c 0.422,0.256 0.627,0.148 0.922,-0.014 L 14.608,5.3 14.8,5.637 Z M 6.374,14.21 C 6.246,13.832 5.874,13.442 5.208,13.415 4.58,13.402 3.684,13.658 2.941,14.25 L 2.8,14.061 c 0.538,-0.62 1.793,-1.614 3.112,-1.628 0.692,0 1.179,0.242 1.525,0.633 l 0.576,-0.337 0.167,0.35 z"
     style="fill:#ffffff;fill-rule:evenodd"
     id="path4" />
</svg>
