<?xml version="1.0" encoding="UTF-8" standalone="no"?>
<!-- Created with Inkscape (http://www.inkscape.org/) -->

<svg
   width="100"
   height="100"
   viewBox="0 0 26.458333 26.458333"
   version="1.1"
   id="svg315"
   inkscape:version="1.2 (dc2aedaf03, 2022-05-15)"
   sodipodi:docname="logo.svg"
   xmlns:inkscape="http://www.inkscape.org/namespaces/inkscape"
   xmlns:sodipodi="http://sodipodi.sourceforge.net/DTD/sodipodi-0.dtd"
   xmlns="http://www.w3.org/2000/svg"
   xmlns:svg="http://www.w3.org/2000/svg">
  <sodipodi:namedview
     id="namedview317"
     pagecolor="#ffffff"
     bordercolor="#666666"
     borderopacity="1.0"
     inkscape:showpageshadow="2"
     inkscape:pageopacity="0.0"
     inkscape:pagecheckerboard="0"
     inkscape:deskcolor="#d1d1d1"
     inkscape:document-units="mm"
     showgrid="false"
     inkscape:zoom="5.8938833"
     inkscape:cx="14.506565"
     inkscape:cy="54.632911"
     inkscape:window-width="3668"
     inkscape:window-height="2120"
     inkscape:window-x="160"
     inkscape:window-y="-12"
     inkscape:window-maximized="1"
     inkscape:current-layer="g6" />
  <defs
     id="defs312" />
  <g
     inkscape:label="Calque 1"
     inkscape:groupmode="layer"
     id="layer1"
     transform="translate(-87.101316,-106.59643)">
    <g
       id="g6"
       style="fill:none;fill-rule:evenodd"
       transform="matrix(0.26458333,0,0,0.26458333,65.670066,105.80294)">
      <path
         d="m 154.192,35.999018 -7.192,-4.277 1.08,-0.723 6.92,4.093 c -0.27,0.271 -0.54,0.542 -0.808,0.907 m 1.71,50 -2.952,-2.082 c -1.94,-1.385 -2.95,-3.725 -2.95,-6.323 v -28.934 c 0,-3.985 0.845,-6.758 2.191,-8.661 -0.758,1.903 -1.096,4.243 -1.096,6.93 l 0.083,29.623 c 0,3.206 0.93,5.286 3.123,6.845 l 2.699,1.91 -1.097,0.692 z M 132,85.735018 c 0,0 -0.278,0.175 -0.462,0.264 h -0.74 v -48.366 c 0,-2.339 -0.185,-2.339 -1.666,-3.382 l -2.132,-1.56 1.393,-0.692 c 1.11,0.864 2.778,2.08 2.778,2.168 0.648,0.605 0.829,0.95 0.829,2.338 v 49.315 z m -35.352998,-59.736 c -0.738,1.93 -0.646,3.774 0.278,5.285 0.836,1.34 2.313,2.264 4.074998,2.685 -5.460998,0.417 -7.862998,-3.523 -4.352998,-7.97 m 12.854998,42 c 0.355,-1.379 0.5,-2.93 0.5,-4.565 v -25.055 c 0,-3.012 -0.145,-3.353 -1.002,-4.3 h 0.145 c 1.212,-0.26 1.855,0 1.855,2.579 v 25.141 c 0,2.928 -0.426,4.822 -1.498,6.201 m 2.148,18 c -0.715,-2.366 -2.876,-4.367 -6.65,-4.914 0.543,-0.087 1.08,-0.087 1.622,-0.087 4.668,0.086 6.018,2.996 6.289,3.907 l 0.089,0.27 -1.35,0.823 z"
         id="path2"
         inkscape:connector-curvature="0"
         style="fill:#8f98a9"
         sodipodi:nodetypes="cccccccssccccccccccsccccscccccccssccsscccccccc" />
      <path
         d="m 114.42,84.735018 c -0.876,-2.454 -3.411,-4.988 -7.964,-5.162 -4.292,-0.088 -10.417998,1.577 -15.489998,5.426 l -0.966,-1.227 c 3.678,-4.025 12.254998,-10.495 21.265998,-10.586 4.73,0 8.054,1.577 10.417,4.113 l 3.941,-2.188 1.138,2.277 z m 53.997,-53.625 c -3.419,2.01 -4.557,4.726 -4.557,8.925 v 33.499 c 0,2.105 0.266,3.062 1.402,3.678 l 1.139,0.615 3.15,-1.844 1.052,2.106 -10.942,6.562 -3.76,-2.541 c -1.669,-1.136 -2.371,-2.537 -2.371,-5.25 v -29.916 c 0,-5.596 1.756,-8.575 4.206,-10.408 l 1.401,-1.05 -10.327,-6.039 -4.639,2.797 v 43.566 c 0,3.674 -0.525,4.2 -3.768,5.86 0,0 -2.531,1.227 -6.026,3.064 h -0.703 v -48.285 c 0,-2.36 -0.266,-2.889 -1.579,-3.937 l -3.672,-2.973 -4.465,2.534 v 25.022 c 0,4.37 -0.7,7.52 -4.2,9.705 l -8.75,5.512 -0.88,-1.485 c 2.716,-2.103 3.327,-5.08 3.327,-8.577 v -25.541 c 0,-3.762 -0.52,-5.248 -4.463,-4.548 -1.486,0.26 -3.762,0.611 -5.162,0.786 -5.777998,0.789 -8.229998,-3.324 -4.289998,-8.484 0,0 0.963998,-1.313 3.412998,-4.465 l 1.93,1.316 -1.405,2.011 c -1.836,2.629 -0.349,4.028 2.63,2.974 1.398,-0.526 4.11,-1.572 6.035,-2.364 8.311,-3.233 11.377,2.103 11.815,5.252 l 10.329,-6.21 8.92,6.82 11.025,-6.82 8.492,4.813 c 2.886,1.657 4.287,0.958 6.301,-0.093 l 1.664,-0.873 1.311,2.189 z"
         id="path4"
         inkscape:connector-curvature="0"
         style="fill:#1a171b"
         sodipodi:nodetypes="ccccccccccssccccccssccccscccscccscccssccccccccccccccccc" />
    </g>
  </g>
</svg>
